<svg id="visual" viewBox="0 0 960 540" width="960" height="540" xmlns="http://www.w3.org/2000/svg" xmlns:xlink="http://www.w3.org/1999/xlink" version="1.1"><rect x="0" y="0" width="960" height="540" fill="#ffffff"></rect><path d="M0 157L22.8 161.7C45.7 166.3 91.3 175.7 137 176.3C182.7 177 228.3 169 274 165.8C319.7 162.7 365.3 164.3 411.2 164.3C457 164.3 503 162.7 548.8 160.2C594.7 157.7 640.3 154.3 686 158.3C731.7 162.3 777.3 173.7 823 179.7C868.7 185.7 914.3 186.3 937.2 186.7L960 187L960 0L937.2 0C914.3 0 868.7 0 823 0C777.3 0 731.7 0 686 0C640.3 0 594.7 0 548.8 0C503 0 457 0 411.2 0C365.3 0 319.7 0 274 0C228.3 0 182.7 0 137 0C91.3 0 45.7 0 22.8 0L0 0Z" fill="#737373"></path><path d="M0 152L22.8 147.2C45.7 142.3 91.3 132.7 137 133C182.7 133.3 228.3 143.7 274 140.8C319.7 138 365.3 122 411.2 117.3C457 112.7 503 119.3 548.8 123.7C594.7 128 640.3 130 686 127.8C731.7 125.7 777.3 119.3 823 114.7C868.7 110 914.3 107 937.2 105.5L960 104L960 0L937.2 0C914.3 0 868.7 0 823 0C777.3 0 731.7 0 686 0C640.3 0 594.7 0 548.8 0C503 0 457 0 411.2 0C365.3 0 319.7 0 274 0C228.3 0 182.7 0 137 0C91.3 0 45.7 0 22.8 0L0 0Z" fill="#4c4c4c"></path><path d="M0 85L22.8 85.2C45.7 85.3 91.3 85.7 137 88.2C182.7 90.7 228.3 95.3 274 98.8C319.7 102.3 365.3 104.7 411.2 99.7C457 94.7 503 82.3 548.8 77.5C594.7 72.7 640.3 75.3 686 80.2C731.7 85 777.3 92 823 93.2C868.7 94.3 914.3 89.7 937.2 87.3L960 85L960 0L937.2 0C914.3 0 868.7 0 823 0C777.3 0 731.7 0 686 0C640.3 0 594.7 0 548.8 0C503 0 457 0 411.2 0C365.3 0 319.7 0 274 0C228.3 0 182.7 0 137 0C91.3 0 45.7 0 22.8 0L0 0Z" fill="#292929"></path><path d="M0 65L22.8 65C45.7 65 91.3 65 137 61.2C182.7 57.3 228.3 49.7 274 45C319.7 40.3 365.3 38.7 411.2 42.7C457 46.7 503 56.3 548.8 59.3C594.7 62.3 640.3 58.7 686 58.8C731.7 59 777.3 63 823 63.2C868.7 63.3 914.3 59.7 937.2 57.8L960 56L960 0L937.2 0C914.3 0 868.7 0 823 0C777.3 0 731.7 0 686 0C640.3 0 594.7 0 548.8 0C503 0 457 0 411.2 0C365.3 0 319.7 0 274 0C228.3 0 182.7 0 137 0C91.3 0 45.7 0 22.8 0L0 0Z" fill="#030303"></path></svg>